<svg width="174" height="52" viewBox="0 0 174 52" fill="none" xmlns="http://www.w3.org/2000/svg">
<path d="M133.615 0L119.822 51.5363H102.354L116.08 0H133.615Z" fill="#009A12"/>
<path d="M173.27 13.7331L171.333 21.138H153.947C153.567 21.1214 153.103 21.3533 152.722 21.4196C151.878 21.8006 151.066 22.4136 150.421 23.0762C150.288 23.4075 149.924 23.8217 149.924 24.153L145.321 41.2489C145.222 41.5305 145.222 41.9778 145.321 42.2594C145.487 42.9883 146.099 43.5847 146.761 43.8332C147.06 44.0485 147.473 44.0485 147.838 44.0485H165.157L163.153 51.5197H135.122C134.277 51.5197 133.3 51.4534 132.539 51.2381C131.827 51.1718 131.065 50.7411 130.452 50.4429C129.972 50.0619 129.459 49.6312 129.095 49.1508C128.681 48.7532 128.366 48.0078 128.085 47.4942C127.969 47.0469 127.803 46.4009 127.72 45.9205C127.571 45.3407 127.522 44.7774 127.571 44.1976C127.571 43.6344 127.621 42.9717 127.72 42.4085C127.72 41.8287 127.853 41.1826 127.936 40.6194C128.333 39.3107 132.406 23.5235 132.886 22.7946C133.516 21.3202 134.542 19.8956 135.403 18.5537C135.95 17.9077 136.612 17.2782 137.191 16.6818C137.754 16.3173 138.417 15.7541 138.98 15.3897C139.625 15.0252 140.387 14.5945 141.066 14.3129C142.192 13.9981 143.467 13.6999 144.659 13.7331C144.675 13.7331 173.27 13.7331 173.27 13.7331Z" fill="#009A12"/>
<path d="M92.0894 0L88.4302 13.6502C82.039 13.6502 75.5651 13.6502 69.1739 13.6502H69.1574C68.6276 13.6337 59.3389 13.6005 56.7393 23.4241C56.64 23.7554 56.5407 24.0867 56.4579 24.4346L52.0039 41.2489C51.9211 41.8121 51.7059 42.4748 51.7225 43.038C51.5734 44.1976 51.6397 45.4069 51.8715 46.5665C52.037 47.0635 52.2357 47.7096 52.451 48.1403C52.7325 48.6041 53.0636 49.1177 53.461 49.4987C53.6597 49.7472 53.8915 49.9625 54.1398 50.1282C54.2557 50.211 54.3882 50.2938 54.5041 50.3767C54.6034 50.4429 54.7193 50.5092 54.8684 50.5755C54.9015 50.5755 54.918 50.592 54.9511 50.6086C55.63 50.9565 56.6897 51.3872 58.0308 51.47C58.213 51.47 58.3951 51.4866 58.5772 51.4866C58.6269 51.4866 58.66 51.4866 58.6931 51.4866C58.8256 51.4866 58.9415 51.4866 59.0739 51.4866H95.8479L109.624 0H92.0894ZM85.9135 23.4241L80.9628 41.7459C80.9628 41.7459 80.88 42.0441 80.8469 42.1435C80.0687 44.297 77.9494 44.1314 77.9494 44.1314C76.4261 44.1314 70.6972 44.1314 70.6972 44.1314C70.6144 44.1314 70.5317 44.1314 70.4489 44.1148C68.4289 43.8829 69.1574 41.6796 69.1574 41.6796L74.0087 23.5732C74.4392 22.397 75.4492 21.254 76.7407 21.0552H84.5061C84.5392 21.0552 84.5723 21.0552 84.6054 21.0552C84.5723 21.0552 86.5427 21.1214 85.9135 23.4241Z" fill="#009A12"/>
<path d="M40.4465 0.1325L36.7873 13.7827C30.3962 13.7827 23.9222 13.7827 17.5311 13.7827H17.5145C16.9847 13.7662 7.69597 13.733 5.09646 23.5566C4.99712 23.8879 4.89777 24.2192 4.81498 24.5671L0.361044 41.3814C0.278257 41.9446 0.0630112 42.6073 0.0795686 43.1705C-0.069448 44.3301 -0.00321843 45.5394 0.228585 46.699C0.394159 47.196 0.592848 47.8421 0.808094 48.2728C1.08957 48.7366 1.42072 49.2502 1.8181 49.6312C2.01678 49.8797 2.24859 50.095 2.49695 50.2607C2.61285 50.3435 2.74531 50.4263 2.86121 50.5092C2.96056 50.5754 3.07646 50.6417 3.22547 50.708C3.25859 50.708 3.27515 50.7245 3.30826 50.7411C3.98711 51.089 5.04679 51.5197 6.38794 51.6025C6.57007 51.6025 6.7522 51.6191 6.93433 51.6191C6.984 51.6191 7.01712 51.6191 7.05023 51.6191C7.18269 51.6191 7.29859 51.6191 7.43105 51.6191H44.205L57.9808 0.1325H40.4465ZM34.2706 23.5566L29.3199 41.8784C29.3199 41.8784 29.2371 42.1766 29.204 42.276C28.4258 44.4295 26.3065 44.2639 26.3065 44.2639C24.7832 44.2639 19.0543 44.2639 19.0543 44.2639C18.9716 44.2639 18.8888 44.2639 18.806 44.2473C16.786 44.0154 17.5145 41.8121 17.5145 41.8121L22.3493 23.7057C22.7798 22.5295 23.7898 21.3864 25.0812 21.1877H32.8467C32.8798 21.1877 32.9129 21.1877 32.946 21.1877C32.9294 21.1877 34.8998 21.2539 34.2706 23.5566Z" fill="#009A12"/>
</svg>
