<svg width="48" height="51" viewBox="0 0 48 51" fill="none" xmlns="http://www.w3.org/2000/svg">
<path d="M46 39.963C46 41.0631 45.5786 42.1182 44.8284 42.8962C44.0783 43.6741 43.0609 44.1111 42 44.1111H6C4.93913 44.1111 3.92172 43.6741 3.17157 42.8962C2.42143 42.1182 2 41.0631 2 39.963V17.1482C2 16.048 2.42143 14.9929 3.17157 14.215C3.92172 13.437 4.93913 13 6 13H14L18 6.77778H30L34 13H42C43.0609 13 44.0783 13.437 44.8284 14.215C45.5786 14.9929 46 16.048 46 17.1482V39.963Z" stroke="#009A12" stroke-width="4" stroke-linecap="round" stroke-linejoin="round"/>
<path d="M24 35.8148C28.4183 35.8148 32 32.1004 32 27.5185C32 22.9366 28.4183 19.2222 24 19.2222C19.5817 19.2222 16 22.9366 16 27.5185C16 32.1004 19.5817 35.8148 24 35.8148Z" stroke="#009A12" stroke-width="4" stroke-linecap="round" stroke-linejoin="round"/>
</svg>
